<svg xmlns="http://www.w3.org/2000/svg" enable-background="new 0 0 24 24" viewBox="0 0 24 24" id="deviant"><path fill="#303c42" d="M8.5 24h-4a.5.5 0 0 1-.5-.5v-3c0-.084.021-.167.062-.241L9.154 11H4.5a.5.5 0 0 1-.5-.5v-6a.5.5 0 0 1 .5-.5h8.504L15.062.259A.5.5 0 0 1 15.5 0h4a.5.5 0 0 1 .5.5v3a.497.497 0 0 1-.062.241L14.846 13h4.675c.276 0 .479.224.479.5v6c0 .276-.203.5-.479.5h-8.525l-2.058 3.741A.5.5 0 0 1 8.5 24z"></path><path fill="#00c853" d="M5 23h3.205l2.058-3.741A.497.497 0 0 1 10.7 19h8.32v-5H14a.5.5 0 0 1-.438-.741L19 3.372V1h-3.205l-2.058 3.741A.497.497 0 0 1 13.3 5H5v5h5a.5.5 0 0 1 .438.741L5 20.628V23z"></path><path d="M13.336 13.259a.573.573 0 0 0 .007.495.418.418 0 0 0 .367.246H14a.5.5 0 0 1-.438-.741L19 3.372V1h-1.018v2.372l-4.646 9.887z" opacity=".1"></path><path fill="#fff" d="M5 5h.5v5H5zM10.667 10.741a.573.573 0 0 0-.007-.495.418.418 0 0 0-.367-.246H10a.5.5 0 0 1 .438.741L5 20.628V23h1.021v-2.372l4.646-9.887z" opacity=".2"></path><path d="M18.5 14h.521v5H18.5z" opacity=".1"></path><linearGradient id="a" x1="2.514" x2="21.49" y1="7.576" y2="16.425" gradientUnits="userSpaceOnUse"><stop offset="0" stop-color="#fff" stop-opacity=".2"></stop><stop offset="1" stop-color="#fff" stop-opacity="0"></stop></linearGradient><path fill="url(#a)" d="M8.5 24h-4a.5.5 0 0 1-.5-.5v-3c0-.084.021-.167.062-.241L9.154 11H4.5a.5.5 0 0 1-.5-.5v-6a.5.5 0 0 1 .5-.5h8.504L15.062.259A.5.5 0 0 1 15.5 0h4a.5.5 0 0 1 .5.5v3a.497.497 0 0 1-.062.241L14.846 13h4.675c.276 0 .479.224.479.5v6c0 .276-.203.5-.479.5h-8.525l-2.058 3.741A.5.5 0 0 1 8.5 24z"></path></svg>